<svg width="24" height="13" viewBox="0 0 24 13" fill="none" xmlns="http://www.w3.org/2000/svg">
<path d="M1.5998 13C1.23147 13 0.922938 12.8752 0.674205 12.6256C0.424605 12.3769 0.299805 12.0683 0.299805 11.7C0.299805 11.3317 0.424605 11.0227 0.674205 10.7731C0.922938 10.5244 1.23147 10.4 1.5998 10.4C1.96814 10.4 2.2771 10.5244 2.5267 10.7731C2.77544 11.0227 2.8998 11.3317 2.8998 11.7C2.8998 12.0683 2.77544 12.3769 2.5267 12.6256C2.2771 12.8752 1.96814 13 1.5998 13ZM1.5998 7.8C1.23147 7.8 0.922938 7.6752 0.674205 7.4256C0.424605 7.17687 0.299805 6.86833 0.299805 6.5C0.299805 6.13167 0.424605 5.8227 0.674205 5.5731C0.922938 5.32437 1.23147 5.2 1.5998 5.2C1.96814 5.2 2.2771 5.32437 2.5267 5.5731C2.77544 5.8227 2.8998 6.13167 2.8998 6.5C2.8998 6.86833 2.77544 7.17687 2.5267 7.4256C2.2771 7.6752 1.96814 7.8 1.5998 7.8ZM1.5998 2.6C1.23147 2.6 0.922938 2.4752 0.674205 2.2256C0.424605 1.97687 0.299805 1.66833 0.299805 1.3C0.299805 0.931667 0.424605 0.6227 0.674205 0.3731C0.922938 0.124367 1.23147 0 1.5998 0C1.96814 0 2.2771 0.124367 2.5267 0.3731C2.77544 0.6227 2.8998 0.931667 2.8998 1.3C2.8998 1.66833 2.77544 1.97687 2.5267 2.2256C2.2771 2.4752 1.96814 2.6 1.5998 2.6ZM5.4998 13V10.4H23.6998V13H5.4998ZM5.4998 7.8V5.2H23.6998V7.8H5.4998ZM5.4998 2.6V0H23.6998V2.6H5.4998Z" fill="#0A106B"/>
</svg>
